<?xml version="1.0" encoding="UTF-8"?>
<svg id="Layer_1" data-name="Layer 1" xmlns="http://www.w3.org/2000/svg" xmlns:xlink="http://www.w3.org/1999/xlink" version="1.1" viewBox="0 0 20 20">
  <defs>
    <style>
      .cls-1 {
        clip-path: url(#clippath);
      }

      .cls-2 {
        fill: #bff355;
      }

      .cls-2, .cls-3 {
        stroke-width: 0px;
      }

      .cls-4, .cls-3 {
        fill: #fff;
      }

      .cls-5 {
        clip-path: url(#clippath-1);
      }
    </style>
    <clipPath id="clippath">
      <path class="cls-3" d="M.5,6.4h3.9v13.6H.5V6.4ZM2.3,4.7h0c-1.2,0-2.3-.9-2.3-2.2v-.2C0,1.1.9,0,2.2,0h.2c1.2,0,2.3.9,2.3,2.2v.2c0,1.2-.9,2.3-2.2,2.4h-.2ZM20,20h-4.4v-7c0-1.8-.7-3.1-2.2-3.1-1,0-1.9.7-2.1,1.7,0,.4-.1.7-.1,1.1v7.4h-4.4s0-12.5,0-13.6h4.4v2.1c.7-1.5,2.2-2.4,3.9-2.3,2.8,0,4.9,2,4.9,6.2v7.6h0Z"/>
    </clipPath>
    <clipPath id="clippath-1">
      <rect class="cls-3" x="-412" y="-52" width="664" height="584"/>
    </clipPath>
  </defs>
  <path class="cls-2" d="M.5,6.4h3.9v13.6H.5V6.4ZM2.3,4.7h0c-1.2,0-2.3-.9-2.3-2.2v-.2C0,1.1.9,0,2.2,0h.2c1.2,0,2.3.9,2.3,2.2v.2c0,1.2-.9,2.3-2.2,2.4h-.2ZM20,20h-4.4v-7c0-1.8-.7-3.1-2.2-3.1-1,0-1.9.7-2.1,1.7,0,.4-.1.7-.1,1.1v7.4h-4.4s0-12.4,0-13.6h4.4v2.1c.7-1.5,2.2-2.4,3.9-2.3,2.8,0,4.9,1.9,4.9,6.2v7.6h0Z"/>
  <g>
    <path class="cls-4" d="M.5,6.4h3.9v13.6H.5V6.4ZM2.3,4.7h0c-1.2,0-2.3-.9-2.3-2.2v-.2C0,1.1.9,0,2.2,0h.2c1.2,0,2.3.9,2.3,2.2v.2c0,1.2-.9,2.3-2.2,2.4h-.2ZM20,20h-4.4v-7c0-1.8-.7-3.1-2.2-3.1-1,0-1.9.7-2.1,1.7,0,.4-.1.7-.1,1.1v7.4h-4.4s0-12.5,0-13.6h4.4v2.1c.7-1.5,2.2-2.4,3.9-2.3,2.8,0,4.9,2,4.9,6.2v7.6h0Z"/>
    <g class="cls-1">
      <g id="Group_413" data-name="Group 413">
        <g>
          <rect class="cls-3" x="-412" y="-52" width="664" height="584"/>
          <g>
            <rect class="cls-4" x="-412" y="-52" width="664" height="584"/>
            <g class="cls-5">
              <g id="Group_412" data-name="Group 412">
                <path id="Path_119" data-name="Path 119" class="cls-3" d="M-5-5h30v30H-5V-5Z"/>
              </g>
            </g>
          </g>
        </g>
      </g>
    </g>
  </g>
</svg>