<svg xmlns="http://www.w3.org/2000/svg" xmlns:xlink="http://www.w3.org/1999/xlink" width="20" height="20" viewBox="0 0 20 20">
  <defs>
    <clipPath id="clip-path">
      <path id="Path_121" data-name="Path 121" d="M12.5-25.587h3.9V-12H12.5Zm1.85-1.7h-.028A2.254,2.254,0,0,1,12-29.64,2.274,2.274,0,0,1,14.381-32a2.263,2.263,0,0,1,2.351,2.356,2.269,2.269,0,0,1-2.378,2.358ZM32-12H27.58v-7.032c0-1.84-.691-3.1-2.212-3.1a2.265,2.265,0,0,0-2.111,1.665,3.383,3.383,0,0,0-.1,1.11V-12H18.783s.056-12.455,0-13.587h4.379v2.132a3.96,3.96,0,0,1,3.891-2.263c2.77,0,4.947,1.955,4.947,6.162V-12Z" stroke="#707070" stroke-width="1" clip-rule="evenodd"/>
    </clipPath>
    <clipPath id="clip-path-2">
      <path id="Path_120" data-name="Path 120" d="M-400,500H264V-84H-400Z" stroke="#707070" stroke-width="1"/>
    </clipPath>
  </defs>
  <g id="Group_413" data-name="Group 413" transform="translate(-12 32)" clip-path="url(#clip-path)">
    <g id="Group_412" data-name="Group 412" clip-path="url(#clip-path-2)">
      <path id="Path_119" data-name="Path 119" d="M7-37H37V-7H7Z" stroke="#707070" stroke-width="1"/>
    </g>
  </g>
</svg>
