<?xml version="1.0" encoding="UTF-8"?>
<svg id="Layer_1" data-name="Layer 1" xmlns="http://www.w3.org/2000/svg" xmlns:xlink="http://www.w3.org/1999/xlink" version="1.1" viewBox="0 0 20 20">
  <defs>
    <style>
      .cls-1 {
        clip-path: url(#clippath);
      }

      .cls-2, .cls-3, .cls-4 {
        fill: #bff355;
      }

      .cls-3 {
        stroke-width: 0px;
      }

      .cls-5 {
        clip-path: url(#clippath-1);
      }

      .cls-4 {
        stroke: #707070;
      }
    </style>
    <clipPath id="clippath">
      <path class="cls-3" d="M.5,6.41h3.9v13.59H.5V6.41ZM2.35,4.71h-.03C1.08,4.75.04,3.77,0,2.53c0-.06,0-.11,0-.17C-.05,1.11.93.05,2.18,0c.07,0,.13,0,.2,0,1.25-.05,2.3.92,2.35,2.17,0,.06,0,.12,0,.18.05,1.25-.92,2.31-2.18,2.36-.07,0-.14,0-.2,0h0ZM20,20h-4.42v-7.03c0-1.84-.69-3.1-2.21-3.1-.99.03-1.85.71-2.11,1.66-.09.36-.13.74-.1,1.11v7.36h-4.37s.06-12.45,0-13.59h4.38v2.13c.7-1.49,2.25-2.39,3.89-2.26,2.77,0,4.95,1.95,4.95,6.16v7.56Z"/>
    </clipPath>
    <clipPath id="clippath-1">
      <rect class="cls-3" x="-412" y="-52" width="664" height="584"/>
    </clipPath>
  </defs>
  <path class="cls-2" d="M.5,6.41h3.9v13.59H.5V6.41ZM2.35,4.71h-.03C1.08,4.75.04,3.77,0,2.53c0-.06,0-.11,0-.17C-.05,1.11.93.05,2.18,0c.07,0,.13,0,.2,0,1.25-.05,2.3.92,2.35,2.17,0,.06,0,.12,0,.18.05,1.25-.92,2.31-2.18,2.36-.07,0-.14,0-.2,0h0ZM20,20h-4.42v-7.03c0-1.84-.69-3.1-2.21-3.1-.99.03-1.85.71-2.11,1.66-.09.36-.13.74-.1,1.11v7.36h-4.37s.06-12.45,0-13.59h4.38v2.13c.7-1.49,2.25-2.39,3.89-2.26,2.77,0,4.95,1.95,4.95,6.16v7.56Z"/>
  <g class="cls-1">
    <g id="Group_413" data-name="Group 413">
      <g>
        <rect class="cls-2" x="-412" y="-52" width="664" height="584"/>
        <g class="cls-5">
          <g id="Group_412" data-name="Group 412">
            <path id="Path_119" data-name="Path 119" class="cls-4" d="M-5-5h30v30H-5V-5Z"/>
          </g>
        </g>
      </g>
    </g>
  </g>
</svg>