<svg id="Group_2784" data-name="Group 2784" xmlns="http://www.w3.org/2000/svg" xmlns:xlink="http://www.w3.org/1999/xlink" width="27" height="22" viewBox="0 0 27 22">
  <defs>
    <clipPath id="clip-path">
      <rect id="Rectangle_1919" data-name="Rectangle 1919" width="27" height="22" fill="none"/>
    </clipPath>
  </defs>
  <g id="Group_2730" data-name="Group 2730" clip-path="url(#clip-path)">
    <path id="Path_3986" data-name="Path 3986" d="M19.125,8.5c3.8,0,6.875,2.519,6.875,5.625a5.282,5.282,0,0,1-2.5,4.337V21l-2.455-1.473a8.278,8.278,0,0,1-1.92.223c-3.8,0-6.875-2.519-6.875-5.625S15.327,8.5,19.125,8.5Z" fill="none" stroke="#000" stroke-linecap="round" stroke-linejoin="round" stroke-width="2"/>
    <path id="Path_3987" data-name="Path 3987" d="M12.5,15.625a10.152,10.152,0,0,1-6.011-.163L3.5,17.25v-3.5A6.971,6.971,0,0,1,1,8.5C1,4.357,4.917,1,9.75,1c4.727,0,8.579,3.212,8.75,7.231v.291" fill="none" stroke="#000" stroke-linecap="round" stroke-linejoin="round" stroke-width="2"/>
    <line id="Line_294" data-name="Line 294" x2="0.012" transform="translate(11 6)" fill="none" stroke="#000" stroke-linecap="round" stroke-linejoin="round" stroke-width="2"/>
    <line id="Line_295" data-name="Line 295" x2="0.012" transform="translate(7.25 6)" fill="none" stroke="#000" stroke-linecap="round" stroke-linejoin="round" stroke-width="2"/>
    <line id="Line_296" data-name="Line 296" x2="0.012" transform="translate(17.25 13.5)" fill="none" stroke="#000" stroke-linecap="round" stroke-linejoin="round" stroke-width="2"/>
    <line id="Line_297" data-name="Line 297" x2="0.012" transform="translate(21 13.5)" fill="none" stroke="#000" stroke-linecap="round" stroke-linejoin="round" stroke-width="2"/>
  </g>
</svg>
