<?xml version="1.0" encoding="UTF-8"?>
<svg id="Layer_1" data-name="Layer 1" xmlns="http://www.w3.org/2000/svg" version="1.1" viewBox="0 0 15.44 15.44">
  <defs>
    <style>
      .cls-1 {
        fill: #bff355;
        stroke-width: 0px;
      }
    </style>
  </defs>
  <path class="cls-1" d="M10.73,5.58c-1.35.07-2.52.48-3.47,1.4-.96.93-1.4,2.08-1.28,3.5-.53-.07-1.01-.14-1.49-.18-.17-.01-.36,0-.51.09-.47.26-.92.56-1.45.9.1-.44.16-.83.27-1.2.08-.27.04-.43-.21-.6C.97,8.33.29,6.62.8,4.86c.47-1.63,1.63-2.62,3.21-3.13,2.15-.7,4.57.01,5.88,1.72.47.62.76,1.31.84,2.13h0ZM4.52,5.03c.01-.32-.27-.61-.6-.62-.34,0-.62.25-.63.58-.01.34.25.61.59.62.34,0,.62-.25.64-.58h0ZM7.76,4.4c-.33,0-.61.29-.61.61,0,.34.28.6.62.59.34,0,.6-.27.6-.61,0-.34-.28-.6-.62-.59Z"/>
  <path class="cls-1" d="M13.76,13.99c-.43-.19-.82-.48-1.24-.52-.42-.04-.85.2-1.29.24-1.32.14-2.51-.23-3.49-1.14-1.86-1.72-1.59-4.36.56-5.77,1.91-1.25,4.72-.84,6.07.9,1.18,1.52,1.04,3.53-.4,4.81-.42.37-.57.67-.3,1.16.05.09.05.2.08.32h0ZM8.9,9.28c.27,0,.5-.21.51-.48.01-.28-.22-.52-.5-.52-.28,0-.52.24-.51.52,0,.27.23.48.5.48h0ZM12.03,8.27c-.26,0-.49.21-.5.48-.01.29.21.52.49.52.27,0,.49-.21.5-.48.01-.29-.21-.52-.49-.52Z"/>
</svg>