<?xml version="1.0" encoding="UTF-8"?>
<svg id="Layer_1" data-name="Layer 1" xmlns="http://www.w3.org/2000/svg" version="1.1" viewBox="0 0 15.4 15.4">
  <defs>
    <style>
      .cls-1 {
        fill: #fff;
        stroke-width: 0px;
      }
    </style>
  </defs>
  <path class="cls-1" d="M10.7,5.6c-1.4,0-2.5.5-3.5,1.4-1,.9-1.4,2.1-1.3,3.5-.5,0-1-.1-1.5-.2-.2,0-.4,0-.5,0-.5.3-.9.6-1.5.9,0-.4.2-.8.3-1.2,0-.3,0-.4-.2-.6C1,8.3.3,6.6.8,4.9c.5-1.6,1.6-2.6,3.2-3.1,2.2-.7,4.6,0,5.9,1.7.5.6.8,1.3.8,2.1h0ZM4.5,5c0-.3-.3-.6-.6-.6-.3,0-.6.2-.6.6,0,.3.2.6.6.6.3,0,.6-.2.6-.6h0ZM7.8,4.4c-.3,0-.6.3-.6.6s.3.6.6.6c.3,0,.6-.3.6-.6s-.3-.6-.6-.6h0Z"/>
  <path class="cls-1" d="M13.8,14c-.4-.2-.8-.5-1.2-.5-.4,0-.9.2-1.3.2-1.3.1-2.5-.2-3.5-1.1-1.9-1.7-1.6-4.4.6-5.8,1.9-1.2,4.7-.8,6.1.9,1.2,1.5,1,3.5-.4,4.8-.4.4-.6.7-.3,1.2,0,0,0,.2,0,.3h0ZM8.9,9.3c.3,0,.5-.2.5-.5,0-.3-.2-.5-.5-.5s-.5.2-.5.5c0,.3.2.5.5.5h0ZM12,8.3c-.3,0-.5.2-.5.5,0,.3.2.5.5.5s.5-.2.5-.5c0-.3-.2-.5-.5-.5Z"/>
</svg>